<svg viewBox="0 0 1000 490" xmlns="http://www.w3.org/2000/svg">
  <g transform="translate(-223.9 -197.35)">
    <path d="M876.2 427.5c39.1-72 90.6-126.5 137.4-151.8l-47-74c-3.7-5.8-9.6-5.8-13.1 0l-257.2 405.4c-3.7 5.8-.6 7.5 6.1 7.5h122.7c-1.9-52.4 13.8-118.8 51.1-187.1" fill="currentColor"/>
    <path d="M1029.6 321.8c-25.2-13.8-79.6 37.3-121.5 114.2s-55.3 150.3-30.1 164.2c18.3 9.9 49.1-16.2 82-59.1v-98.2c0-10.2 6.4-15.8 11.2-6.9l27.4 51.8c.4-.6.6-1.1 1-1.7 41.9-76.9 55.3-150.4 30-164.3" fill="currentColor"/>
    <path d="M1224 607.1l-103.8-163.7a487.68 487.68 0 0 1-39.9 95.7 537.18 537.18 0 0 1-29.3 47.5l19.6 28h147.3c6.7 0 9.8-1.7 6.1-7.5" fill="currentColor"/>
  </g>
</svg>
