<svg viewBox="-425.5 64 164.9 164.9" xmlns="http://www.w3.org/2000/svg">
  <rect x="-425.5" y="64" width="164.9" height="164.9" fill="currentColor"/>
  <path fill="white" d="M-282.1,138.6c0-2.4-1.5-4.1-2.7-5.9c-1.2-1.2-2.1-2.4-2.1-3.8c0-1.8,1.2-2.9,2.7-2.9c0.9,0,1.5,0.3,2.1,0.6c0.6,0.3,1.5,0.6,2.1,0.6c1.2,0,2.1-1.2,2.1-2.1c0-1.2-1.2-2.4-3.2-2.4c-4.7,0-8.8,5.3-8.8,9.4c0,2.4,1.5,4.1,2.7,5.6c0.9,1.2,1.8,2.4,1.8,3.5c0,1.8-1.8,2.9-3.2,2.9c-1.8,0-2.7-0.9-3.8-1.8c-0.6-0.6-1.2-1.2-1.8-1.2c-0.9,0-1.2,1.8-1.2,2.7c0,1.2,2.1,2.9,4.7,2.9C-286.9,146.3-282.1,142.8-282.1,138.6"/>
  <path fill="white" d="M-382.7,109.7h-6.5v1.2h1.5c1.2,0.3,1.5,0.3,1.5,0.9c0,0.9-1.2,3.8-2.7,8l-1.2,3.8c-1.2,3.2-2.9,8-4.4,11.8c-1.8,4.7-3.2,8.6-3.2,9.1s0.3,0.9,1.8,0.9c1.5,0,2.1-0.3,2.4-0.9c2.7-8.6,9.7-18.3,13.3-18.3c1.2,0,1.5,0.3,1.5,1.5c0,1.8-1.5,5.3-3.2,8.8c-1.5,2.9-2.7,5.9-2.7,7.4c0,1.2,0.6,1.8,1.8,1.8c3.5,0,6.5-3.2,8.6-5.9l-0.9-0.9c-1.2,1.2-3.2,3.2-3.8,3.2h-0.3v-0.6c0-0.3,0.3-1.2,0.9-2.4c1.5-3.2,3.8-8.8,3.8-12.1c0-2.7-1.2-4.1-3.5-4.1c-4.4,0-8,5-9.7,7.7c-0.3,0.6-0.9,1.2-0.9,1.2s0.3-0.6,0.6-1.8c0.6-1.2,1.2-2.9,2.1-5.3c3.2-8.8,4.7-13.3,4.7-13.9s-0.6-0.6-0.9-0.6v-1.2z"/>
  <path fill="white" d="M-392.8,141l-0.9-0.9c-1.5,1.2-4.1,3.5-6.5,3.5c-0.9,0-1.8-0.3-2.4-0.9c-0.9-0.6-1.2-1.8-1.2-3.2c-0.3-3.5,2.9-9.1,5.9-12.4c1.8-1.8,3.2-2.7,4.1-2.7c1.2,0,2.1,0.9,2.9,1.8c0.6,0.9,1.2,1.5,2.1,1.5c0.3,0,0.9-0.3,0.9-0.6c0.3-0.3,0.6-0.9,0.6-1.2c0-1.5-1.5-3.5-4.7-3.8c-3.5,0-8.3,2.1-11.8,5.6c-3.2,3.2-5,7.4-4.7,11.2c0,3.2,1.8,6.8,6.5,6.8C-397.2,146.3-393.3,142.2-392.8,141z"/>
  <path fill="white" d="M-333.2,132.7c0,0.3-0.3,0.6-0.3,0.6v-0.3c0-0.3,0.3-1.2,0.6-2.4c0.6-2.4,1.2-5.3,1.2-6.2c0-1.2-0.6-1.8-1.8-1.8c-2.4,0-6.2,4.1-7.4,6.2l0.6,0.9l0.3-0.3l0.3-0.3c0.9-1.2,2.7-3.2,3.5-3.2c0.6,0,0.9,0.6,0.9,1.5c0,2.1-2.4,8.6-3.8,13c-0.9,2.4-1.5,4.1-1.5,4.4c0,0.6,0.3,0.6,0.6,0.6h2.1c0.3,0,0.6-0.3,0.9-0.9c0,0,0.9-2.4,1.5-3.5c4.1-8.3,6.2-12.4,8-14.2c1.2-1.2,2.1-1.5,2.7-1.5c0.6,0,0.6,0.3,0.9,0.6s0.6,0.9,1.2,0.9c0.3,0,0.9,0,1.2-0.3c0.6-0.6,0.9-1.2,0.9-2.1c0-1.5-1.2-2.1-2.1-2.1C-327,122.7-329.6,125.4-333.2,132.7z"/>
  <path fill="white" d="M-362.1,140.4c0-6.8,5.3-15.9,10.6-15.9c1.8,0,2.7,0.9,2.7,2.7c0,2.7-7.1,15.3-11.8,15.3C-361.5,142.8-362.1,142.5-362.1,140.4z M-345.9,122.1l-1.5-0.9c-0.3,0-0.6,0.3-0.6,0.6c-0.3,0.3-0.3,0.6-0.9,0.6c-0.3,0-0.6,0-1.2-0.3c-0.6,0-1.2-0.3-2.1-0.3c-10.3,0-15.6,13.9-15.6,18.6c0,3.2,1.8,4.7,3.5,4.7c2.1,0,5-0.6,8.8-6.5l0.9-1.5v0.3l-0.3,0.6c-0.6,0.9-1.5,2.9-1.5,4.7c0,0.9,0.3,1.5,0.6,1.8c0.3,0.3,0.9,0.6,1.5,0.6c3.5,0,6.5-4.7,7.7-6.5l-0.9-0.9h-0.3l-0.9,0.9c-1.2,1.2-2.4,2.9-3.2,2.9h-0.3v-0.6c0-1.2,2.4-6.8,3.8-11.2c1.2-3.2,2.4-6.2,2.4-6.8c0,0,0-0.6-0.3-0.6z"/>
  <path fill="white" d="M-312.8,139.8c0,3.8,2.4,6.5,5.9,6.5c4.1,0,8.6-4.1,9.7-5.3v-0.3l-0.6-0.9h-0.3l-0.6,0.3c-1.5,1.2-3.8,2.9-5.9,2.9c-2.4,0-3.8-1.5-3.8-3.8c0-2.9,1.5-5,2.4-6.8v-0.3h2.4c3.8,0,10.9-1.8,10.9-6.2c0-1.8-1.8-3.8-4.7-3.8C-303.4,122.7-312.8,131.6-312.8,139.8z M-297.8,124.2c1.2,0,2.1,0.9,2.1,2.1c0,2.9-3.2,4.4-8.8,4.4C-303.7,128.6-300.4,124.2-297.8,124.2z"/>
  <path fill="white" d="M-318.8,109.7h-6.8v1.5h1.5c0.9,0.3,1.5,0.6,1.5,1.2c0,0.9-4.4,11.8-4.4,11.8c-2.4,5.9-6.5,16.2-6.5,18.6c0,1.2,0.3,2.1,0.6,2.4c0.6,0.6,1.2,0.9,2.1,0.9c2.7,0,5.6-3.5,7.4-5.9l0.3-0.3l-0.9-1.2l-0.3,0.3c-2.1,2.1-2.9,3.5-4.1,3.5h-0.3c0,0-0.3-0.3-0.3-0.6c0-1.2,2.1-7.1,6.2-17.7l2.9-7.7c1.5-3.8,2.4-5.9,2.4-6.2v-0.3c0-0.3-0.3-0.3-0.9-0.3z"/>
</svg>
